<svg width="720" height="520" viewBox="0 0 720 520" fill="none" xmlns="http://www.w3.org/2000/svg">
  <rect width="720" height="520" fill="#F8F8F8"/>
  <path d="M246 116L286 86H434L474 116L530 154L500 208L462 188V418H258V188L220 208L190 154L246 116Z" fill="#FFFFFF" stroke="#111111" stroke-width="3"/>
  <path d="M298 86V126L360 142L422 126V86" stroke="#111111" stroke-width="3"/>

  <line x1="258" y1="432" x2="462" y2="432" stroke="#111111" stroke-width="2"/>
  <line x1="254" y1="418" x2="254" y2="432" stroke="#111111" stroke-width="2"/>
  <line x1="466" y1="418" x2="466" y2="432" stroke="#111111" stroke-width="2"/>
  <text x="360" y="458" fill="#111111" font-size="18" text-anchor="middle" font-family="Inter, Arial">Length</text>

  <line x1="286" y1="76" x2="434" y2="76" stroke="#111111" stroke-width="2"/>
  <line x1="286" y1="76" x2="286" y2="90" stroke="#111111" stroke-width="2"/>
  <line x1="434" y1="76" x2="434" y2="90" stroke="#111111" stroke-width="2"/>
  <text x="360" y="58" fill="#111111" font-size="18" text-anchor="middle" font-family="Inter, Arial">Shoulder</text>

  <line x1="258" y1="236" x2="462" y2="236" stroke="#111111" stroke-width="2"/>
  <line x1="258" y1="228" x2="258" y2="244" stroke="#111111" stroke-width="2"/>
  <line x1="462" y1="228" x2="462" y2="244" stroke="#111111" stroke-width="2"/>
  <text x="360" y="224" fill="#111111" font-size="18" text-anchor="middle" font-family="Inter, Arial">Chest</text>

  <line x1="474" y1="116" x2="584" y2="286" stroke="#111111" stroke-width="2"/>
  <line x1="468" y1="116" x2="482" y2="116" stroke="#111111" stroke-width="2"/>
  <line x1="578" y1="286" x2="592" y2="286" stroke="#111111" stroke-width="2"/>
  <text x="620" y="214" fill="#111111" font-size="18" text-anchor="middle" font-family="Inter, Arial">Sleeve</text>
</svg>
